<?xml version="1.0" encoding="utf-8"?>
<!-- Generator: Adobe Illustrator 24.1.1, SVG Export Plug-In . SVG Version: 6.00 Build 0)  -->
<svg version="1.1" id="Layer_1" xmlns="http://www.w3.org/2000/svg" xmlns:xlink="http://www.w3.org/1999/xlink" x="0px" y="0px"
	 viewBox="0 0 269.2 247.5" style="enable-background:new 0 0 269.2 247.5;" xml:space="preserve">
<style type="text/css">
	.st0{fill:url(#SVGID_1_);}
</style>
<g id="Capa_2">
	<g id="BACKGROUND_1">
		
			<linearGradient id="SVGID_1_" gradientUnits="userSpaceOnUse" x1="691.17" y1="386.4288" x2="905.292" y2="600.5607" gradientTransform="matrix(-1 0 0 1 949 -358.75)">
			<stop  offset="0" style="stop-color:#1AE26A"/>
			<stop  offset="1" style="stop-color:#5C9AFF"/>
		</linearGradient>
		<path class="st0" d="M256.8,109.9L256.8,109.9c-3.3-3.3-8.7-3.3-12,0l-6.6,6.6c-1,1-2.5,1-3.5,0l0,0c-1-1-1-2.5,0-3.5l30.1-30.1
			c5.8-5.8,6-15.6,0.1-21.3c-5.8-5.6-15-5.5-20.6,0.2l-42.8,42.8c-1.7,1.7-4.5,1.7-6.2,0l0,0c-1.7-1.7-1.7-4.5,0-6.2l1.8-1.8
			c4.6-4.5,4.9-11.7,0.7-16.6c-4.4-4.8-11.9-5.2-16.7-0.8c-0.1,0.1-0.3,0.3-0.4,0.4l-21.8,21.8c-1.8,1.8-4.7,1.8-6.5,0l0,0
			c-1.8-1.8-1.8-4.7,0-6.5l80.4-80.4c3.3-3.3,3.3-8.7,0-12l0,0c-3.3-3.3-8.7-3.3-12,0l-56.8,56.8c-1.6,1.6-4.2,1.6-5.8,0
			c0,0,0,0,0,0l0,0c-1.6-1.6-1.6-4.2,0-5.8c0,0,0,0,0,0l7.1-7.1c2.7-2.6,2.8-6.8,0.4-9.6c-2.6-2.7-6.8-2.9-9.6-0.3
			c-0.1,0-0.1,0.1-0.2,0.1L2.1,190.2c-2.7,2.6-2.8,6.8-0.4,9.6c2.6,2.7,6.8,2.9,9.6,0.3c0.1,0,0.1-0.1,0.2-0.1l59.1-59.1
			c1.6-1.6,4.2-1.6,5.8,0c0,0,0,0,0,0l0,0c1.6,1.6,1.6,4.2,0,5.8c0,0,0,0,0,0l-3.2,3.2c-3.3,3.3-3.3,8.7,0,12l0,0
			c3.3,3.3,8.7,3.3,12,0l25.8-25.8c1.8-1.8,4.7-1.8,6.5,0l0,0c1.8,1.8,1.8,4.7,0,6.5l-55.8,55.9c-4.6,4.5-4.9,11.7-0.6,16.5
			c4.4,4.8,11.9,5.2,16.7,0.8c0.1-0.1,0.3-0.3,0.4-0.4l81.6-81.6c1.7-1.7,4.5-1.7,6.2,0l0,0c1.7,1.7,1.7,4.5,0,6.2l-12.9,12.9
			c-5.8,5.8-5.8,15.1,0,20.8l0,0c5.8,5.8,15.1,5.8,20.8,0l17.2-17.2c1-1,2.5-1,3.5,0l0,0c1,1,1,2.5,0,3.5l-72.9,73
			c-3.3,3.3-3.3,8.7,0,12l0,0c3.3,3.3,8.7,3.3,12,0l123.1-123.1C260.1,118.6,260.1,113.2,256.8,109.9z"/>
	</g>
</g>
</svg>
