<?xml version="1.0" encoding="utf-8"?>
<!-- Generator: Adobe Illustrator 24.1.1, SVG Export Plug-In . SVG Version: 6.00 Build 0)  -->
<svg version="1.1" id="Layer_1" xmlns="http://www.w3.org/2000/svg" xmlns:xlink="http://www.w3.org/1999/xlink" x="0px" y="0px"
	 viewBox="0 0 243.7 193.9" style="enable-background:new 0 0 243.7 193.9;" xml:space="preserve">
<style type="text/css">
	.st0{fill:url(#SVGID_1_);}
</style>
<g id="Capa_2">
	<g id="BACKGROUND_1">
		
			<linearGradient id="SVGID_1_" gradientUnits="userSpaceOnUse" x1="727.7293" y1="728.8499" x2="938.8351" y2="939.9456" gradientTransform="matrix(-1 0 0 1 956.0601 -737.44)">
			<stop  offset="0" style="stop-color:#4AADFF"/>
			<stop  offset="1" style="stop-color:#5AFFA4"/>
		</linearGradient>
		<path class="st0" d="M11.3,142.7L11.3,142.7c3.3,3.3,8.7,3.3,12,0l6.6-6.6c1-1,2.5-1,3.5,0l0,0c1,1,1,2.5,0,3.5L4.3,168.8
			c-5.8,5.8-5.8,15.1,0,20.8l0,0c5.8,5.8,15.1,5.8,20.8,0l55.3-55.3c1.7-1.7,4.5-1.7,6.2,0l0,0c1.7,1.7,1.7,4.5,0,6.2l-1.8,1.9
			c-4.7,4.7-4.8,12.3-0.1,17c0,0,0.1,0.1,0.1,0.1c4.6,4.5,12,4.4,16.6-0.2l21.7-21.8c1.8-1.8,4.7-1.8,6.5,0l0,0
			c1.8,1.8,1.8,4.7,0,6.5l-32.9,32.9c-3.3,3.3-3.3,8.7,0,12l0,0c3.3,3.3,8.7,3.3,12,0l100-100c3.3-3.3,3.3-8.7,0-12l0,0
			c-3.3-3.3-8.7-3.3-12,0l-25.8,25.8c-1.8,1.8-4.7,1.8-6.5,0l0,0c-1.8-1.8-1.8-4.7,0-6.5l75.9-75.9c4.7-4.7,4.8-12.3,0.1-17
			c0,0-0.1-0.1-0.1-0.1c-4.6-4.5-12-4.4-16.6,0.2L103.2,123.9c-1.7,1.7-4.5,1.7-6.2,0l0,0c-1.7-1.7-1.7-4.5,0-6.2L128.7,86
			c5.8-5.8,5.8-15.1,0-20.8l0,0c-5.8-5.8-15.1-5.8-20.8,0l-46.3,46.3c-1,1-2.5,1-3.5,0l0,0c-1-1-1-2.5,0-3.5l65.3-65.3
			c3.3-3.3,3.3-8.7,0-12l0,0c-3.3-3.3-8.7-3.3-12,0l-100,100C8,134.1,8,139.4,11.3,142.7z"/>
	</g>
</g>
</svg>
