<?xml version="1.0" encoding="utf-8"?>
<!-- Generator: Adobe Illustrator 24.1.1, SVG Export Plug-In . SVG Version: 6.00 Build 0)  -->
<svg version="1.1" id="Layer_1" xmlns="http://www.w3.org/2000/svg" xmlns:xlink="http://www.w3.org/1999/xlink" x="0px" y="0px"
	 viewBox="0 0 276.1 281" style="enable-background:new 0 0 276.1 281;" xml:space="preserve">
<style type="text/css">
	.st0{opacity:0.8;fill:url(#SVGID_1_);enable-background:new    ;}
</style>
<g id="Capa_2">
	<g id="OBJECTS">
		
			<linearGradient id="SVGID_1_" gradientUnits="userSpaceOnUse" x1="-2.150435e-02" y1="143.4655" x2="276.1026" y2="143.4655" gradientTransform="matrix(1 0 0 -1 0 284)">
			<stop  offset="0" style="stop-color:#9CFF73"/>
			<stop  offset="1" style="stop-color:#0597E0"/>
		</linearGradient>
		<path class="st0" d="M262,86.8c-2.6-3.8-5.4-7.4-8.6-10.7l0,0c0,0-50.8-57.9-137-73.9l0,0C66.2-8.7,16.7,23.1,5.8,73.2
			c-0.3,1.3-0.5,2.7-0.8,4c-17.6,85.6,16.6,154.3,16.8,154.7c1.9,4.2,4.1,8.1,6.7,11.9c21.1,31.4,60.2,43.8,96.1,33.7
			c0,0,58.1-14.3,123.3-79l0,0C278.8,169,285.6,121.9,262,86.8z"/>
	</g>
</g>
</svg>
